<?xml version="1.0" encoding="UTF-8" standalone="no"?>
<!DOCTYPE svg PUBLIC "-//W3C//DTD SVG 1.1//EN" "http://www.w3.org/Graphics/SVG/1.1/DTD/svg11.dtd">
<!-- Generated by Microsoft Visio, SVG Export port-restricted-cone-nat.svg Page-3 -->
<svg xmlns="http://www.w3.org/2000/svg" xmlns:xlink="http://www.w3.org/1999/xlink" xmlns:ev="http://www.w3.org/2001/xml-events"
		xmlns:v="http://schemas.microsoft.com/visio/2003/SVGExtensions/" width="7.33071in" height="3.34646in"
		viewBox="0 0 527.811 240.945" xml:space="preserve" color-interpolation-filters="sRGB" class="st34">
	<v:documentProperties v:langID="1033" v:metric="true" v:viewMarkup="false">
		<v:userDefs>
			<v:ud v:nameU="msvNoAutoConnect" v:val="VT0(1):26"/>
		</v:userDefs>
	</v:documentProperties>

	<style type="text/css">
	<![CDATA[
		.st1 {fill:#f2f2f2;stroke:#d8d8d8;stroke-dasharray:3,3;stroke-linecap:round;stroke-linejoin:round;stroke-width:1}
		.st2 {stroke:#d8d8d8;stroke-dasharray:3,3;stroke-linecap:round;stroke-linejoin:round;stroke-width:1}
		.st3 {fill:#ffffff;stroke:#083b66;stroke-linecap:round;stroke-linejoin:round;stroke-width:1}
		.st4 {fill:#083b66;font-family:Verdana;font-size:1.00001em}
		.st5 {fill:#ffffff;stroke:#7f7f7f;stroke-linecap:round;stroke-linejoin:round;stroke-width:1}
		.st6 {fill:#595959;font-family:Verdana;font-size:1.00001em}
		.st7 {marker-end:url(#mrkr13-30);marker-start:url(#mrkr10-28);stroke:#d8d8d8;stroke-linecap:round;stroke-linejoin:round;stroke-width:2}
		.st8 {fill:#d8d8d8;fill-opacity:1;stroke:#d8d8d8;stroke-opacity:1;stroke-width:0.44247787610619}
		.st9 {fill:#ebf1df;stroke:#00b050;stroke-linecap:round;stroke-linejoin:round;stroke-width:2}
		.st10 {fill:#00b050;font-family:Verdana;font-size:1.5em}
		.st11 {fill:#f2f2f2;stroke:#d8d8d8;stroke-linecap:round;stroke-linejoin:round;stroke-width:2}
		.st12 {fill:#595959;font-family:Verdana;font-size:1.5em}
		.st13 {fill:#dbeef3;stroke:#083b66;stroke-linecap:round;stroke-linejoin:round;stroke-width:2}
		.st14 {fill:#083b66;font-family:Verdana;font-size:1.5em}
		.st15 {marker-end:url(#mrkr10-62);marker-start:url(#mrkr13-60);stroke:#ea700d;stroke-linecap:round;stroke-linejoin:round;stroke-width:2}
		.st16 {fill:#ea700d;fill-opacity:1;stroke:#ea700d;stroke-opacity:1;stroke-width:0.44247787610619}
		.st17 {fill:#fcebdd;stroke:#ea700d;stroke-linecap:round;stroke-linejoin:round;stroke-width:2}
		.st18 {fill:#000000;font-family:Verdana;font-size:1.5em;font-weight:bold}
		.st19 {font-size:1em;font-weight:normal}
		.st20 {fill:none;stroke:none;stroke-linecap:round;stroke-linejoin:round;stroke-width:0.75}
		.st21 {fill:#ea700d;font-family:Verdana;font-size:1.00001em}
		.st22 {marker-end:url(#mrkr13-80);marker-start:url(#mrkr10-78);stroke:#00b050;stroke-linecap:round;stroke-linejoin:round;stroke-width:2}
		.st23 {fill:#00b050;fill-opacity:1;stroke:#00b050;stroke-opacity:1;stroke-width:0.44247787610619}
		.st24 {fill:#fef7f1;stroke:#ea700d;stroke-linecap:round;stroke-linejoin:round;stroke-width:1.5}
		.st25 {fill:#000000;font-family:Verdana;font-size:1.00001em;font-weight:bold}
		.st26 {font-size:1em}
		.st27 {fill:none;stroke:none;stroke-linecap:round;stroke-linejoin:round;stroke-width:1}
		.st28 {font-size:0.777771em;font-weight:normal}
		.st29 {fill:#ec5252;stroke:#ec5252;stroke-linecap:butt;stroke-width:0.75}
		.st30 {fill:#7f7f7f;font-family:Verdana;font-size:1.16666em}
		.st31 {fill:#ea700d;font-family:Verdana;font-size:1.00001em;font-weight:bold}
		.st32 {marker-end:url(#mrkr1-119);stroke:#ea700d;stroke-linecap:round;stroke-linejoin:round;stroke-width:1.5}
		.st33 {fill:#ea700d;fill-opacity:1;stroke:#ea700d;stroke-opacity:1;stroke-width:0.37313432835821}
		.st34 {fill:none;fill-rule:evenodd;font-size:12px;overflow:visible;stroke-linecap:square;stroke-miterlimit:3}
	]]>
	</style>

	<defs id="Markers">
		<g id="lend10">
			<path
					d="M 0 0.75 C -0.414214 0.75 -0.75 0.414214 -0.75 0 -0.75 -0.414214 -0.414214 -0.75 0 -0.75 0.414214 -0.75 0.75 -0.414214 0.75 0 0.75 0.414214 0.414214 0.75 0 0.75 Z "
					style="stroke:none"/>
		</g>
		<marker id="mrkr10-28" class="st8" v:arrowType="10" v:arrowSize="2" v:setback="1.515" refX="1.515" orient="auto"
				markerUnits="strokeWidth" overflow="visible">
			<use xlink:href="#lend10" transform="scale(2.26) "/>
		</marker>
		<g id="lend13">
			<path d="M 3 1 L 0 0 L 3 -1 L 3 1 " style="stroke:none"/>
		</g>
		<marker id="mrkr13-30" class="st8" v:arrowType="13" v:arrowSize="2" v:setback="6.78" refX="-6.78" orient="auto"
				markerUnits="strokeWidth" overflow="visible">
			<use xlink:href="#lend13" transform="scale(-2.26,-2.26) "/>
		</marker>
		<marker id="mrkr13-60" class="st16" v:arrowType="13" v:arrowSize="2" v:setback="6.6" refX="6.6" orient="auto"
				markerUnits="strokeWidth" overflow="visible">
			<use xlink:href="#lend13" transform="scale(2.26) "/>
		</marker>
		<marker id="mrkr10-62" class="st16" v:arrowType="10" v:arrowSize="2" v:setback="1.515" refX="-1.515" orient="auto"
				markerUnits="strokeWidth" overflow="visible">
			<use xlink:href="#lend10" transform="scale(-2.26,-2.26) "/>
		</marker>
		<marker id="mrkr10-78" class="st23" v:arrowType="10" v:arrowSize="2" v:setback="1.515" refX="1.515" orient="auto"
				markerUnits="strokeWidth" overflow="visible">
			<use xlink:href="#lend10" transform="scale(2.26) "/>
		</marker>
		<marker id="mrkr13-80" class="st23" v:arrowType="13" v:arrowSize="2" v:setback="6.78" refX="-6.78" orient="auto"
				markerUnits="strokeWidth" overflow="visible">
			<use xlink:href="#lend13" transform="scale(-2.26,-2.26) "/>
		</marker>
		<g id="lend1">
			<path d="M 1 -1 L 0 0 L 1 1 " style="stroke-linecap:round;stroke-linejoin:round;fill:none"/>
		</g>
		<marker id="mrkr1-119" class="st33" v:arrowType="1" v:arrowSize="2" orient="auto" markerUnits="strokeWidth"
				overflow="visible">
			<use xlink:href="#lend1" transform="scale(-2.68,-2.68) "/>
		</marker>
	</defs>
	<g v:mID="7" v:index="3" v:groupContext="foregroundPage">
		<title>Page-3</title>
		<v:pageProperties v:drawingScale="0.0393701" v:pageScale="0.0393701" v:drawingUnits="24" v:shadowOffsetX="8.50394"
				v:shadowOffsetY="-8.50394"/>
		<v:layer v:name="rect" v:index="0" v:snap="false" v:glue="false"/>
		<v:layer v:name="Flowchart" v:index="1"/>
		<v:layer v:name="Connector" v:index="2"/>
		<g id="group107-1" transform="translate(2.08733,-6.43042)" v:mID="107" v:groupContext="group">
			<title>Sheet.107</title>
			<g id="shape96-2" v:mID="96" v:groupContext="shape" transform="translate(132.842,-48.8452)">
				<title>Sheet.96</title>
				<path d="M0 240.94 L260.79 144.14 L260.79 106.3 L0 191.34 L0 240.94 Z" class="st1"/>
			</g>
			<g id="shape99-4" v:mID="99" v:groupContext="shape" transform="translate(132.842,-2.07351)">
				<title>Sheet.99</title>
				<path d="M260.79 97.37 L260.79 240.94 L0 194.17" class="st2"/>
			</g>
			<g id="shape62-7" v:mID="62" v:groupContext="shape" transform="translate(63.7795,-65.0026)">
				<title>Rectangle.62</title>
				<desc>Port 8001</desc>
				<v:userDefs>
					<v:ud v:nameU="visVersion" v:val="VT0(15):26"/>
				</v:userDefs>
				<v:textBlock v:margins="rect(4,4,4,4)" v:tabSpace="42.5197"/>
				<v:textRect cx="36.4639" cy="228.614" width="72.93" height="24.6614"/>
				<rect x="0" y="216.283" width="72.9277" height="24.6614" rx="2.83465" ry="2.83465" class="st3"/>
				<text x="6.91" y="232.21" class="st4" v:langID="1033"><v:paragraph v:horizAlign="1"/><v:tabList/>Port 8001</text>			</g>
			<g id="shape63-10" v:mID="63" v:groupContext="shape" transform="translate(382.677,-145.648)">
				<title>Rectangle.63</title>
				<desc>Port 80</desc>
				<v:userDefs>
					<v:ud v:nameU="visVersion" v:val="VT0(15):26"/>
				</v:userDefs>
				<v:textBlock v:margins="rect(4,4,4,4)" v:tabSpace="42.5197"/>
				<v:textRect cx="36.4639" cy="228.614" width="72.93" height="24.6614"/>
				<rect x="0" y="216.283" width="72.9277" height="24.6614" rx="2.83465" ry="2.83465" class="st3"/>
				<text x="14.54" y="232.21" class="st4" v:langID="1033"><v:paragraph v:horizAlign="1"/><v:tabList/>Port 80</text>			</g>
			<g id="shape64-13" v:mID="64" v:groupContext="shape" transform="translate(382.677,-116.31)">
				<title>Rectangle.64</title>
				<desc>Port 81</desc>
				<v:userDefs>
					<v:ud v:nameU="visVersion" v:val="VT0(15):26"/>
				</v:userDefs>
				<v:textBlock v:margins="rect(4,4,4,4)" v:tabSpace="42.5197"/>
				<v:textRect cx="36.4639" cy="228.614" width="72.93" height="24.6614"/>
				<rect x="0" y="216.283" width="72.9277" height="24.6614" rx="2.83465" ry="2.83465" class="st5"/>
				<text x="14.54" y="232.21" class="st6" v:langID="1033"><v:paragraph v:horizAlign="1"/><v:tabList/>Port 81</text>			</g>
			<g id="shape65-16" v:mID="65" v:groupContext="shape" transform="translate(382.291,-37.9318)">
				<title>Rectangle.65</title>
				<desc>Port 80</desc>
				<v:userDefs>
					<v:ud v:nameU="visVersion" v:val="VT0(15):26"/>
				</v:userDefs>
				<v:textBlock v:margins="rect(4,4,4,4)" v:tabSpace="42.5197"/>
				<v:textRect cx="36.4639" cy="228.614" width="72.93" height="24.6614"/>
				<rect x="0" y="216.283" width="72.9277" height="24.6614" rx="2.83465" ry="2.83465" class="st5"/>
				<text x="14.54" y="232.21" class="st6" v:langID="1033"><v:paragraph v:horizAlign="1"/><v:tabList/>Port 80</text>			</g>
			<g id="shape66-19" v:mID="66" v:groupContext="shape" transform="translate(382.291,-8.59321)">
				<title>Rectangle.66</title>
				<desc>Port 81</desc>
				<v:userDefs>
					<v:ud v:nameU="visVersion" v:val="VT0(15):26"/>
				</v:userDefs>
				<v:textBlock v:margins="rect(4,4,4,4)" v:tabSpace="42.5197"/>
				<v:textRect cx="36.4639" cy="228.614" width="72.93" height="24.6614"/>
				<rect x="0" y="216.283" width="72.9277" height="24.6614" rx="2.83465" ry="2.83465" class="st5"/>
				<text x="14.54" y="232.21" class="st6" v:langID="1033"><v:paragraph v:horizAlign="1"/><v:tabList/>Port 81</text>			</g>
			<g id="shape70-22" v:mID="70" v:groupContext="shape" transform="translate(483.09,331.329) rotate(155.371)">
				<title>Sheet.70</title>
				<path d="M3.03 240.94 L3.39 240.94 L92.89 240.94" class="st7"/>
			</g>
			<g id="shape71-31" v:mID="71" v:groupContext="shape" transform="translate(327.105,425.222) rotate(-166.759)">
				<title>Sheet.71</title>
				<path d="M3.03 240.94 L3.39 240.94 L85.45 240.94" class="st7"/>
			</g>
			<g id="shape72-38" v:mID="72" v:groupContext="shape" transform="translate(300.03,446.489) rotate(-160.037)">
				<title>Sheet.72</title>
				<path d="M3.03 240.94 L3.39 240.94 L88.98 240.94" class="st7"/>
			</g>
			<g id="shape80-45" v:mID="80" v:groupContext="shape" transform="translate(465.27,-117.935)">
				<title>Rectangle.80</title>
				<desc>IP-B</desc>
				<v:userDefs>
					<v:ud v:nameU="visVersion" v:val="VT0(15):26"/>
				</v:userDefs>
				<v:textBlock v:margins="rect(4,4,4,4)" v:tabSpace="42.5197"/>
				<v:textRect cx="29.3766" cy="215.253" width="58.76" height="51.3831"/>
				<rect x="0" y="189.562" width="58.7532" height="51.3831" rx="2.83465" ry="2.83465" class="st9"/>
				<text x="9.9" y="220.65" class="st10" v:langID="1033"><v:paragraph v:horizAlign="1"/><v:tabList/>IP-B  </text>			</g>
			<g id="shape82-48" v:mID="82" v:groupContext="shape" transform="translate(465.27,-10.218)">
				<title>Rectangle.82</title>
				<desc>IP-C</desc>
				<v:userDefs>
					<v:ud v:nameU="visVersion" v:val="VT0(15):26"/>
				</v:userDefs>
				<v:textBlock v:margins="rect(4,4,4,4)" v:tabSpace="42.5197"/>
				<v:textRect cx="29.3766" cy="215.253" width="58.76" height="51.3831"/>
				<rect x="0" y="189.562" width="58.7532" height="51.3831" rx="2.83465" ry="2.83465" class="st11"/>
				<text x="9.79" y="220.65" class="st12" v:langID="1033"><v:paragraph v:horizAlign="1"/><v:tabList/>IP-C</text>			</g>
			<g id="shape83-51" v:mID="83" v:groupContext="shape" transform="translate(0.38783,-51.6418)">
				<title>Rectangle.83</title>
				<desc>IP-A</desc>
				<v:userDefs>
					<v:ud v:nameU="visVersion" v:val="VT0(15):26"/>
				</v:userDefs>
				<v:textBlock v:margins="rect(4,4,4,4)" v:tabSpace="42.5197"/>
				<v:textRect cx="29.3766" cy="215.253" width="58.76" height="51.3831"/>
				<rect x="0" y="189.562" width="58.7532" height="51.3831" rx="2.83465" ry="2.83465" class="st13"/>
				<text x="9.92" y="220.65" class="st14" v:langID="1033"><v:paragraph v:horizAlign="1"/><v:tabList/>IP-A  </text>			</g>
			<g id="shape69-54" v:mID="69" v:groupContext="shape" v:layerMember="2"
					transform="translate(300.46,-152.163) rotate(-19.9518) scale(-1,1)">
				<title>Line-arc connector</title>
				<v:userDefs>
					<v:ud v:nameU="Scale" v:val="VT0(1):26"/>
					<v:ud v:nameU="AntiScale" v:val="VT0(1):26"/>
					<v:ud v:nameU="visVersion" v:val="VT0(15):26"/>
				</v:userDefs>
				<path d="M12.61 244.85 L12.95 244.95 A420.84 420.84 -180 0 0 258.45 241.99 L258.79 241.88" class="st15"/>
			</g>
			<g id="shape1-63" v:mID="1" v:groupContext="shape" transform="translate(192.369,-47.4279)">
				<title>Rectangle</title>
				<desc>NAT IP-X</desc>
				<v:userDefs>
					<v:ud v:nameU="visVersion" v:val="VT0(15):26"/>
				</v:userDefs>
				<v:textBlock v:margins="rect(4,4,4,4)" v:tabSpace="42.5197"/>
				<v:textRect cx="42.5197" cy="209.055" width="85.04" height="63.7795"/>
				<rect x="0" y="177.165" width="85.0394" height="63.7795" rx="5.66929" ry="5.66929" class="st17"/>
				<text x="21.78" y="203.66" class="st18" v:langID="1033"><v:paragraph v:horizAlign="1"/><v:tabList/>NAT<v:newlineChar/><tspan
							x="23.05" dy="1.2em" class="st19">IP</tspan><tspan class="st19">-</tspan><tspan class="st19">X</tspan></text>			</g>
			<g id="shape87-69" v:mID="87" v:groupContext="shape" transform="translate(172.437,-78.9773) rotate(-28.5526)">
				<title>Sheet.87</title>
				<desc>Initial Packet</desc>
				<v:textBlock v:margins="rect(4,4,4,4)" v:tabSpace="42.5197"/>
				<v:textRect cx="45.4727" cy="230.945" width="90.95" height="20"/>
				<rect x="0" y="220.945" width="90.9453" height="20" class="st20"/>
				<text x="6.3" y="234.55" class="st21" v:langID="1033"><v:paragraph v:horizAlign="1"/><v:tabList/>Initial Packet</text>			</g>
			<g id="shape88-72" v:mID="88" v:groupContext="shape" transform="translate(489.278,310.43) rotate(153.878)">
				<title>Sheet.88</title>
				<path d="M3.03 240.94 L3.39 240.94 L96.37 240.94" class="st22"/>
			</g>
			<g id="shape89-81" v:mID="89" v:groupContext="shape" transform="translate(38.8184,-126.798)">
				<title>Rectangle.89</title>
				<desc>Src A:8001 Dst B:80</desc>
				<v:userDefs>
					<v:ud v:nameU="visVersion" v:val="VT0(15):26"/>
				</v:userDefs>
				<v:textBlock v:margins="rect(4,4,4,4)" v:tabSpace="42.5197"/>
				<v:textRect cx="76.4592" cy="222.006" width="152.92" height="37.8786"/>
				<rect x="0" y="203.066" width="152.918" height="37.8786" rx="2.83465" ry="2.83465" class="st24"/>
				<text x="4" y="218.41" class="st25" v:langID="1033"><v:paragraph/><v:tabList/>Src<tspan class="st19"> </tspan><tspan
							class="st19">A:8001<v:newlineChar/></tspan><tspan x="4" dy="1.2em" class="st26">Dst</tspan><tspan
							class="st19"> </tspan><tspan class="st19">B:80</tspan></text>			</g>
			<g id="shape90-89" v:mID="90" v:groupContext="shape" transform="translate(263.236,-193.979)">
				<title>Rectangle.90</title>
				<desc>Src X:8001 Dst B:80</desc>
				<v:userDefs>
					<v:ud v:nameU="visVersion" v:val="VT0(15):26"/>
				</v:userDefs>
				<v:textBlock v:margins="rect(4,4,4,4)" v:tabSpace="42.5197"/>
				<v:textRect cx="76.4592" cy="222.006" width="152.92" height="37.8786"/>
				<rect x="0" y="203.066" width="152.918" height="37.8786" rx="2.83465" ry="2.83465" class="st24"/>
				<text x="4" y="218.41" class="st25" v:langID="1033"><v:paragraph/><v:tabList/>Src<tspan class="st19"> </tspan><tspan
							class="st19">X:8001<v:newlineChar/></tspan><tspan x="4" dy="1.2em" class="st26">Dst</tspan><tspan
							class="st19"> </tspan><tspan class="st19">B:80</tspan></text>			</g>
			<g id="shape91-97" v:mID="91" v:groupContext="shape" transform="translate(0,-170.821)">
				<title>Rectangle.91</title>
				<desc>Port-Restricted-Cone Cisco Dynamic NAT</desc>
				<v:textBlock v:margins="rect(4,4,4,4)" v:tabSpace="42.5197"/>
				<v:textRect cx="120.279" cy="210.427" width="240.56" height="61.0363"/>
				<rect x="0" y="179.909" width="240.558" height="61.0363" rx="2.83465" ry="2.83465" class="st27"/>
				<text x="4" y="207.43" class="st18" v:langID="1033"><v:paragraph/><v:tabList/>Port-Restricted-Cone <v:newlineChar/><tspan
							x="4" dy="1.286em" class="st28">Cisco Dynamic NAT</tspan></text>			</g>
			<g id="shape92-101" v:mID="92" v:groupContext="shape" transform="translate(329.141,-27.5853)">
				<title>Permission</title>
				<v:userDefs>
					<v:ud v:nameU="msvShapeCategories" v:prompt="" v:val="VT4(Icon)"/>
					<v:ud v:nameU="visVersion" v:prompt="" v:val="VT0(15):26"/>
				</v:userDefs>
				<path d="M9.21 239.79 A8.07025 8.07025 -180 0 0 17.27 231.73 A8.06988 8.06988 -180 0 0 9.21 223.67 A8.06988 8.06988
							 -180 0 0 1.15 231.73 A8.06988 8.06988 -180 0 0 9.21 239.79 ZM9.21 222.52 A9.21301 9.21301 0 0 1 18.43
							 231.73 A9.21264 9.21264 0 0 1 9.21 240.94 A9.21301 9.21301 0 0 1 0 231.73 A9.21301 9.21301 0 0 1 9.21
							 222.52 ZM3.45 232.88 L3.45 230.58 L14.97 230.58 L14.97 232.88 L3.45 232.88 Z" class="st29"/>
			</g>
			<g id="shape94-103" v:mID="94" v:groupContext="shape" transform="translate(329.141,-51.6798)">
				<title>Permission.94</title>
				<v:userDefs>
					<v:ud v:nameU="msvShapeCategories" v:prompt="" v:val="VT4(Icon)"/>
					<v:ud v:nameU="visVersion" v:prompt="" v:val="VT0(15):26"/>
				</v:userDefs>
				<path d="M9.21 239.79 A8.07025 8.07025 -180 0 0 17.27 231.73 A8.06988 8.06988 -180 0 0 9.21 223.67 A8.06988 8.06988
							 -180 0 0 1.15 231.73 A8.06988 8.06988 -180 0 0 9.21 239.79 ZM9.21 222.52 A9.21301 9.21301 0 0 1 18.43
							 231.73 A9.21264 9.21264 0 0 1 9.21 240.94 A9.21301 9.21301 0 0 1 0 231.73 A9.21301 9.21301 0 0 1 9.21
							 222.52 ZM3.45 232.88 L3.45 230.58 L14.97 230.58 L14.97 232.88 L3.45 232.88 Z" class="st29"/>
			</g>
			<g id="shape95-105" v:mID="95" v:groupContext="shape" transform="translate(329.141,-100.577)">
				<title>Permission.95</title>
				<v:userDefs>
					<v:ud v:nameU="msvShapeCategories" v:prompt="" v:val="VT4(Icon)"/>
					<v:ud v:nameU="visVersion" v:prompt="" v:val="VT0(15):26"/>
				</v:userDefs>
				<path d="M9.21 239.79 A8.07025 8.07025 -180 0 0 17.27 231.73 A8.06988 8.06988 -180 0 0 9.21 223.67 A8.06988 8.06988
							 -180 0 0 1.15 231.73 A8.06988 8.06988 -180 0 0 9.21 239.79 ZM9.21 222.52 A9.21301 9.21301 0 0 1 18.43
							 231.73 A9.21264 9.21264 0 0 1 9.21 240.94 A9.21301 9.21301 0 0 1 0 231.73 A9.21301 9.21301 0 0 1 9.21
							 222.52 ZM3.45 232.88 L3.45 230.58 L14.97 230.58 L14.97 232.88 L3.45 232.88 Z" class="st29"/>
			</g>
			<g id="shape102-107" v:mID="102" v:groupContext="shape" transform="translate(175.936,-24.4799) rotate(10.3617)">
				<title>Sheet.102</title>
				<desc>Port-Restricted-Cone</desc>
				<v:textBlock v:margins="rect(4,4,4,4)" v:tabSpace="42.5197"/>
				<v:textRect cx="78.9752" cy="231.555" width="157.96" height="18.7807"/>
				<rect x="0" y="222.164" width="157.95" height="18.7807" class="st20"/>
				<text x="4" y="235.75" class="st30" v:langID="1033"><v:paragraph/><v:tabList/>Port-Restricted-Cone</text>			</g>
			<g id="shape103-110" v:mID="103" v:groupContext="shape" transform="translate(123.468,-126.798)">
				<title>Sheet.103</title>
				<desc>Before NAT</desc>
				<v:textBlock v:margins="rect(4,4,4,4)" v:tabSpace="42.5197"/>
				<v:textRect cx="34.1346" cy="222.646" width="68.27" height="36.5985"/>
				<rect x="0" y="204.346" width="68.2692" height="36.5985" class="st20"/>
				<text x="4" y="219.05" class="st31" v:langID="1033"><v:paragraph/><v:tabList/>Before<v:newlineChar/><v:paragraph/><tspan
							x="4" dy="1.2em" class="st19">NAT</tspan></text>			</g>
			<g id="shape104-114" v:mID="104" v:groupContext="shape" transform="translate(191.737,-145.737)">
				<title>Sheet.104</title>
				<path d="M0 240.94 L28.98 240.94" class="st32"/>
			</g>
			<g id="shape105-120" v:mID="105" v:groupContext="shape" transform="translate(347.885,-193.979)">
				<title>Sheet.105</title>
				<desc>After NAT</desc>
				<v:textBlock v:margins="rect(4,4,4,4)" v:tabSpace="42.5197"/>
				<v:textRect cx="34.1346" cy="222.646" width="68.27" height="36.5985"/>
				<rect x="0" y="204.346" width="68.2692" height="36.5985" class="st20"/>
				<text x="4" y="219.05" class="st31" v:langID="1033"><v:paragraph/><v:tabList/>After<v:newlineChar/><v:paragraph/><tspan
							x="4" dy="1.2em" class="st19">NAT</tspan></text>			</g>
			<g id="shape106-124" v:mID="106" v:groupContext="shape" transform="translate(416.154,-212.918)">
				<title>Sheet.106</title>
				<path d="M0 240.94 L28.98 240.94" class="st32"/>
			</g>
		</g>
	</g>
</svg>
